<svg width="24" height="24" viewBox="0 0 24 24" fill="none" xmlns="http://www.w3.org/2000/svg">
<path d="M0.75 12C0.75 6.69675 0.75 4.04513 2.397 2.397C4.04625 0.75 6.69675 0.75 12 0.75C17.3033 0.75 19.9549 0.75 21.6019 2.397C23.25 4.04625 23.25 6.69675 23.25 12C23.25 17.3033 23.25 19.9549 21.6019 21.6019C19.956 23.25 17.3033 23.25 12 23.25C6.69675 23.25 4.04513 23.25 2.397 21.6019C0.75 19.956 0.75 17.3033 0.75 12Z" stroke="#160321" stroke-width="1.5"/>
<path d="M5.25 16.275L6.53588 17.625L9.75 14.25M5.25 8.4L6.53588 9.75L9.75 6.375" stroke="#160321" stroke-width="1.5" stroke-linecap="round" stroke-linejoin="round"/>
<path d="M13.125 8.625H18.75M13.125 16.5H18.75" stroke="#160321" stroke-width="1.5" stroke-linecap="round"/>
</svg>
