<svg width="24" height="24" viewBox="0 0 24 24" fill="none" xmlns="http://www.w3.org/2000/svg">
<path d="M20.4853 3.51472C18.2348 1.26428 15.1826 -2.37122e-08 12 0C8.8174 2.37122e-08 5.76516 1.26428 3.51472 3.51472C1.26428 5.76516 2.37122e-08 8.8174 0 12C-2.37122e-08 15.1826 1.26428 18.2348 3.51472 20.4853C5.76515 22.7357 8.8174 24 12 24C15.1826 24 18.2348 22.7357 20.4853 20.4853C22.7357 18.2348 24 15.1826 24 12C24 8.8174 22.7357 5.76515 20.4853 3.51472ZM7.38467 19.3845C7.38467 18.8949 7.57917 18.4253 7.92539 18.0791C8.27161 17.7329 8.74118 17.5384 9.2308 17.5384C9.72043 17.5384 10.19 17.7329 10.5362 18.0791C10.8824 18.4253 11.0769 18.8949 11.0769 19.3845V22.1064C9.78969 21.99 8.5365 21.629 7.38467 21.0426V19.3845ZM12.9231 19.3845C12.9231 18.8949 13.1176 18.4253 13.4638 18.0791C13.81 17.7329 14.2796 17.5384 14.7692 17.5384C15.2588 17.5384 15.7284 17.7329 16.0746 18.0791C16.4208 18.4253 16.6153 18.8949 16.6153 19.3845V21.0426C15.4635 21.629 14.2103 21.99 12.9231 22.1064V19.3845ZM9.60811 12.9231H14.3919L15.728 15.8192C15.0634 15.64 14.3618 15.6507 13.7029 15.8499C13.044 16.0492 12.454 16.429 12 16.9465C11.546 16.429 10.956 16.0492 10.2971 15.8499C9.6382 15.6507 8.93664 15.64 8.27197 15.8192L9.60811 12.9231ZM10.4608 11.0769L12 7.74121L13.5392 11.0769H10.4608ZM19.1791 19.1803C18.9484 19.4111 18.7084 19.6268 18.4615 19.8311V17.5384C18.4616 17.4049 18.4325 17.2729 18.3761 17.1519L12.8377 5.15201C12.7637 4.99215 12.6455 4.8568 12.4971 4.76194C12.3486 4.66708 12.1762 4.61668 12 4.61668C11.8238 4.61668 11.6514 4.66708 11.5029 4.76194C11.3545 4.8568 11.2363 4.99215 11.1623 5.15201L5.62392 17.1519C5.56753 17.2729 5.53838 17.4049 5.53854 17.5384V19.8311C5.2892 19.6256 5.0497 19.4084 4.82086 19.1803C3.40066 17.7603 2.43343 15.9511 2.04151 13.9815C1.64958 12.0118 1.85056 9.97011 2.61901 8.11465C3.38747 6.2592 4.6889 4.6733 6.35871 3.55752C8.02852 2.44174 9.99171 1.84619 12 1.84619C14.0083 1.84619 15.9715 2.44174 17.6413 3.55752C19.3111 4.6733 20.6125 6.2592 21.381 8.11465C22.1494 9.97011 22.3504 12.0118 21.9585 13.9815C21.5666 15.9511 20.5993 17.7603 19.1791 19.1803Z" fill="#160321"/>
</svg>
