<svg width="24" height="24" viewBox="0 0 24 24" fill="none" xmlns="http://www.w3.org/2000/svg">
<path d="M22.125 19.8755V12.3008C22.125 11.6905 22.0008 11.0865 21.76 10.5256C21.5193 9.96476 21.1669 9.45874 20.7244 9.03835L13.5503 2.22422C13.1321 1.82697 12.5773 1.60547 12.0006 1.60547C11.4238 1.60547 10.869 1.82697 10.4509 2.22422L3.27562 9.03835C2.83311 9.45874 2.48074 9.96476 2.23995 10.5256C1.99917 11.0865 1.875 11.6905 1.875 12.3008V19.8755C1.875 20.4722 2.11205 21.0445 2.53401 21.4665C2.95597 21.8884 3.52826 22.1255 4.125 22.1255H19.875C20.4717 22.1255 21.044 21.8884 21.466 21.4665C21.8879 21.0445 22.125 20.4722 22.125 19.8755Z" stroke="#160321" stroke-width="2" stroke-linecap="round" stroke-linejoin="round"/>
<path d="M8.625 15.375C8.625 14.7783 8.86205 14.206 9.28401 13.784C9.70597 13.3621 10.2783 13.125 10.875 13.125H13.125C13.7217 13.125 14.294 13.3621 14.716 13.784C15.1379 14.206 15.375 14.7783 15.375 15.375V22.125H8.625V15.375Z" stroke="#160321" stroke-width="2" stroke-linecap="round" stroke-linejoin="round"/>
</svg>
