<svg width="20" height="26" viewBox="0 0 20 26" fill="none" xmlns="http://www.w3.org/2000/svg">
<path fill-rule="evenodd" clip-rule="evenodd" d="M10 0.90625C8.58275 0.90625 7.22355 1.46925 6.2214 2.4714C5.21925 3.47355 4.65625 4.83275 4.65625 6.25C4.65625 7.66725 5.21925 9.02645 6.2214 10.0286C7.22355 11.0307 8.58275 11.5938 10 11.5938C11.4173 11.5938 12.7765 11.0307 13.7786 10.0286C14.7808 9.02645 15.3438 7.66725 15.3438 6.25C15.3438 4.83275 14.7808 3.47355 13.7786 2.4714C12.7765 1.46925 11.4173 0.90625 10 0.90625ZM6.34375 6.25C6.34375 5.2803 6.72896 4.35032 7.41464 3.66464C8.10032 2.97896 9.0303 2.59375 10 2.59375C10.9697 2.59375 11.8997 2.97896 12.5854 3.66464C13.271 4.35032 13.6563 5.2803 13.6563 6.25C13.6563 7.2197 13.271 8.14968 12.5854 8.83536C11.8997 9.52104 10.9697 9.90625 10 9.90625C9.0303 9.90625 8.10032 9.52104 7.41464 8.83536C6.72896 8.14968 6.34375 7.2197 6.34375 6.25ZM10 13.2812C7.39788 13.2812 4.99938 13.873 3.223 14.872C1.4725 15.8575 0.156252 17.3493 0.156252 19.1875V19.3022C0.155127 20.6095 0.154002 22.2498 1.59288 23.422C2.3005 23.998 3.29163 24.4086 4.63038 24.6786C5.97138 24.9509 7.72075 25.0938 10 25.0938C12.2793 25.0938 14.0275 24.9509 15.3708 24.6786C16.7095 24.4086 17.6995 23.998 18.4083 23.422C19.8471 22.2498 19.8449 20.6095 19.8438 19.3022V19.1875C19.8438 17.3493 18.5275 15.8575 16.7781 14.872C15.0006 13.873 12.6033 13.2812 10 13.2812ZM1.84375 19.1875C1.84375 18.2301 2.5435 17.1906 4.04988 16.3435C5.53038 15.511 7.63188 14.9688 10.0011 14.9688C12.3681 14.9688 14.4696 15.511 15.9501 16.3435C17.4576 17.1906 18.1563 18.2301 18.1563 19.1875C18.1563 20.659 18.1113 21.487 17.3418 22.1125C16.9255 22.4522 16.228 22.7841 15.0355 23.0249C13.8464 23.2656 12.2208 23.4062 10 23.4062C7.77925 23.4062 6.1525 23.2656 4.9645 23.0249C3.772 22.7841 3.0745 22.4522 2.65825 22.1136C1.88875 21.487 1.84375 20.659 1.84375 19.1875Z" fill="#160321"/>
</svg>
